
<svg xmlns="http://www.w3.org/2000/svg" viewBox="0 0 800 560" width="100%" style="max-width:800px">
<defs>
  <style>
    /* ── KEYFRAMES ── */

    /* Body subtle bob while coding */
    @keyframes bodyBob {
      0%,100% { transform:translateY(0px) }
      50%      { transform:translateY(-2px) }
    }

    /* Head tilts slightly forward while coding, then lifts during sip */
    @keyframes headAnim {
      0%,40%   { transform:rotate(0deg) }
      45%      { transform:rotate(-6deg) }
      48%,52%  { transform:rotate(-4deg) }
      55%      { transform:rotate(0deg) }
      100%     { transform:rotate(0deg) }
    }

    /* LEFT ARM — types the whole cycle */
    @keyframes armLeftType {
      0%,100% { transform:rotate(-5deg) }
      50%     { transform:rotate(4deg)  }
    }

    /*
      RIGHT ARM — types most of the time, then lifts for a coffee sip.
      Single arm, single keyframe. No extra arm groups.
      Cycle = 16 s:
        0–38%   typing (oscillates like left)
        40–44%  lifts up toward mouth
        44–54%  holds at mouth (sip)
        56–60%  lowers back down
        60–100% typing again
    */
    @keyframes armRightAnim {
      0%      { transform:rotate(4deg)  translateY(0px) }
      5%      { transform:rotate(-3deg) translateY(0px) }
      10%     { transform:rotate(4deg)  translateY(0px) }
      15%     { transform:rotate(-3deg) translateY(0px) }
      20%     { transform:rotate(4deg)  translateY(0px) }
      25%     { transform:rotate(-3deg) translateY(0px) }
      30%     { transform:rotate(4deg)  translateY(0px) }
      35%     { transform:rotate(-3deg) translateY(0px) }
      38%     { transform:rotate(0deg)  translateY(0px) }
      44%     { transform:rotate(-48deg) translateY(-18px) }
      48%     { transform:rotate(-52deg) translateY(-20px) }
      54%     { transform:rotate(-52deg) translateY(-20px) }
      60%     { transform:rotate(0deg)  translateY(0px) }
      65%     { transform:rotate(4deg)  translateY(0px) }
      70%     { transform:rotate(-3deg) translateY(0px) }
      75%     { transform:rotate(4deg)  translateY(0px) }
      80%     { transform:rotate(-3deg) translateY(0px) }
      85%     { transform:rotate(4deg)  translateY(0px) }
      90%     { transform:rotate(-3deg) translateY(0px) }
      95%     { transform:rotate(4deg)  translateY(0px) }
      100%    { transform:rotate(4deg)  translateY(0px) }
    }

    /* Mug in right hand — travels with the arm */
    @keyframes mugWithArm {
      0%,38%  { opacity:1 }
      39%     { opacity:1 }
      40%     { opacity:1 }
      100%    { opacity:1 }
    }

    /* Code scroll */
    @keyframes codeScroll { 0%{ transform:translateY(0) } 100%{ transform:translateY(-320px) } }

    /* Cursor blink */
    @keyframes cursorBlink { 0%,100%{ opacity:1 } 50%{ opacity:0 } }

    /* Screen ambient pulse */
    @keyframes screenGlow { 0%,100%{ opacity:.6 } 50%{ opacity:.9 } }

    /* Steam */
    @keyframes steam1 {
      0%   { opacity:0; transform:translateY(0) scaleX(1) }
      20%  { opacity:.6 }
      70%  { opacity:.2; transform:translateY(-30px) scaleX(1.3) }
      100% { opacity:0; transform:translateY(-46px) scaleX(.6) }
    }
    @keyframes steam2 {
      0%   { opacity:0; transform:translateY(0) scaleX(1) }
      25%  { opacity:.5 }
      75%  { opacity:.15; transform:translateY(-26px) scaleX(.9) }
      100% { opacity:0; transform:translateY(-42px) scaleX(.6) }
    }
    @keyframes steam3 {
      0%   { opacity:0; transform:translateY(0) }
      20%  { opacity:.4 }
      80%  { opacity:.1; transform:translateY(-22px) }
      100% { opacity:0; transform:translateY(-36px) }
    }

    /* Trophies gold glow */
    @keyframes trophyGlow {
      0%,100% { filter:drop-shadow(0 0 3px #f5c518) }
      50%     { filter:drop-shadow(0 0 10px #f5c518) drop-shadow(0 0 22px #f5c518aa) }
    }

    /* Neon sign flicker */
    @keyframes neonFlicker {
      0%,100% { opacity:1 }
      91%     { opacity:1 }
      93%     { opacity:.3 }
      95%     { opacity:1 }
      97%     { opacity:.5 }
    }

    /* LED RGB shift */
    @keyframes ledRgb {
      0%   { stop-color:#0bc5ea }
      33%  { stop-color:#7c3aed }
      66%  { stop-color:#f43f8a }
      100% { stop-color:#0bc5ea }
    }
    @keyframes ledRgb2 {
      0%   { stop-color:#7c3aed }
      33%  { stop-color:#f43f8a }
      66%  { stop-color:#0bc5ea }
      100% { stop-color:#7c3aed }
    }
    @keyframes ledRgb3 {
      0%   { stop-color:#f43f8a }
      33%  { stop-color:#0bc5ea }
      66%  { stop-color:#7c3aed }
      100% { stop-color:#f43f8a }
    }

    /* RGB border stroke cycle */
    @keyframes rgbStroke {
      0%   { stroke:#0bc5ea }
      33%  { stroke:#7c3aed }
      66%  { stroke:#f43f8a }
      100% { stroke:#0bc5ea }
    }

    /* Plant sway */
    @keyframes plantSway { 0%,100%{ transform:rotate(-3deg) } 50%{ transform:rotate(3deg) } }

    /* Cat tail */
    @keyframes catTail { 0%,100%{ transform:rotate(-22deg) } 50%{ transform:rotate(22deg) } }

    /* Cat blink */
    @keyframes catBlink { 0%,93%,100%{ transform:scaleY(1) } 96%{ transform:scaleY(.06) } }

    /* Book float */
    @keyframes bookFloat { 0%,100%{ transform:translateY(0) } 50%{ transform:translateY(-5px) } }

    /* Music bars */
    @keyframes bar1 { 0%,100%{height:20px;y:360px} 50%{height:36px;y:344px} }
    @keyframes bar2 { 0%,100%{height:26px;y:354px} 50%{height:10px;y:370px} }
    @keyframes bar3 { 0%,100%{height:14px;y:366px} 50%{height:38px;y:342px} }

    /* Floating notifications */
    @keyframes notifFloat {
      0%       { opacity:0; transform:translateY(0px) }
      12%      { opacity:1 }
      80%      { opacity:.85; transform:translateY(-32px) }
      100%     { opacity:0;  transform:translateY(-44px) }
    }

    /* ── APPLIED CLASSES ── */
    .body-bob    { animation: bodyBob 1.8s ease-in-out infinite; transform-origin:400px 380px }
    .head-anim   { animation: headAnim 16s ease-in-out infinite; transform-origin:400px 250px }
    .arm-l       { animation: armLeftType .3s ease-in-out infinite; transform-origin:364px 292px }
    .arm-r       { animation: armRightAnim 16s ease-in-out infinite; transform-origin:436px 292px }
    .code-lines  { animation: codeScroll 7s linear infinite }
    .cursor      { animation: cursorBlink .55s step-end infinite }
    .scr-glow    { animation: screenGlow 3s ease-in-out infinite }
    .s1          { animation: steam1 3s ease-out infinite }
    .s2          { animation: steam2 2.4s ease-out infinite 1.1s }
    .s3          { animation: steam3 3.6s ease-out infinite .55s }
    .t-glow      { animation: trophyGlow 2.2s ease-in-out infinite }
    .neon        { animation: neonFlicker 9s ease-in-out infinite }
    .plant       { animation: plantSway 5s ease-in-out infinite; transform-origin:680px 340px }
    .cat-tail    { animation: catTail 1.3s ease-in-out infinite; transform-origin:736px 428px }
    .cat-eye     { animation: catBlink 4.5s ease-in-out infinite; transform-origin:718px 396px }
    .bk-float    { animation: bookFloat 3.2s ease-in-out infinite }
    .notif1      { animation: notifFloat 6s ease-out infinite 1.4s }
    .notif2      { animation: notifFloat 6s ease-out infinite 4.2s }
    .rgb-b       { animation: rgbStroke 3s linear infinite }
  </style>

  <!-- ── GRADIENTS ── -->
  <linearGradient id="wallG" x1="0" y1="0" x2="0" y2="1">
    <stop offset="0%"   stop-color="#04060f"/>
    <stop offset="45%"  stop-color="#0b0e28"/>
    <stop offset="100%" stop-color="#060818"/>
  </linearGradient>
  <linearGradient id="floorG" x1="0" y1="0" x2="0" y2="1">
    <stop offset="0%"   stop-color="#10133a"/>
    <stop offset="100%" stop-color="#060818"/>
  </linearGradient>
  <linearGradient id="deskG" x1="0" y1="0" x2="0" y2="1">
    <stop offset="0%"   stop-color="#28194a"/>
    <stop offset="100%" stop-color="#180e32"/>
  </linearGradient>
  <linearGradient id="chairG" x1="0" y1="0" x2="0" y2="1">
    <stop offset="0%"   stop-color="#181828"/>
    <stop offset="100%" stop-color="#0c0c18"/>
  </linearGradient>
  <linearGradient id="shirtG" x1="0" y1="0" x2="1" y2="1">
    <stop offset="0%"   stop-color="#180430"/>
    <stop offset="100%" stop-color="#0c021c"/>
  </linearGradient>
  <linearGradient id="monG" x1="0" y1="0" x2="0" y2="1">
    <stop offset="0%"   stop-color="#080615"/>
    <stop offset="100%" stop-color="#040410"/>
  </linearGradient>
  <linearGradient id="scrG" x1="0" y1="0" x2="1" y2="1">
    <stop offset="0%"   stop-color="#0a1c30"/>
    <stop offset="100%" stop-color="#040e1a"/>
  </linearGradient>
  <linearGradient id="trophyG" x1="0" y1="0" x2="0" y2="1">
    <stop offset="0%"   stop-color="#ffe566"/>
    <stop offset="50%"  stop-color="#f5c518"/>
    <stop offset="100%" stop-color="#a07010"/>
  </linearGradient>
  <linearGradient id="mugG" x1="0" y1="0" x2="0" y2="1">
    <stop offset="0%"   stop-color="#182840"/>
    <stop offset="100%" stop-color="#0c1828"/>
  </linearGradient>
  <linearGradient id="posterG" x1="0" y1="0" x2="1" y2="1">
    <stop offset="0%"   stop-color="#0bc5ea"/>
    <stop offset="100%" stop-color="#7c3aed"/>
  </linearGradient>
  <linearGradient id="lampG" x1="0.5" y1="0" x2="0.5" y2="1">
    <stop offset="0%"   stop-color="#ffe090" stop-opacity=".5"/>
    <stop offset="100%" stop-color="#ffe090" stop-opacity="0"/>
  </linearGradient>

  <!-- RGB LED bar gradient (animated) -->
  <linearGradient id="ledBar" x1="0" y1="0" x2="1" y2="0">
    <stop offset="0%">  <animate attributeName="stop-color" values="#0bc5ea;#7c3aed;#f43f8a;#0bc5ea" dur="4s" repeatCount="indefinite"/></stop>
    <stop offset="50%"> <animate attributeName="stop-color" values="#7c3aed;#f43f8a;#0bc5ea;#7c3aed" dur="4s" repeatCount="indefinite"/></stop>
    <stop offset="100%"><animate attributeName="stop-color" values="#f43f8a;#0bc5ea;#7c3aed;#f43f8a" dur="4s" repeatCount="indefinite"/></stop>
  </linearGradient>

  <radialGradient id="scrLight" cx="50%" cy="50%" r="50%">
    <stop offset="0%"   stop-color="#0bc5ea" stop-opacity=".16"/>
    <stop offset="100%" stop-color="#0bc5ea" stop-opacity="0"/>
  </radialGradient>
  <radialGradient id="ambGlow" cx="50%" cy="50%" r="50%">
    <stop offset="0%"   stop-color="#0bc5ea" stop-opacity=".07"/>
    <stop offset="100%" stop-color="#0bc5ea" stop-opacity="0"/>
  </radialGradient>

  <!-- Filters -->
  <filter id="glow">
    <feGaussianBlur stdDeviation="2.5" result="b"/>
    <feMerge><feMergeNode in="b"/><feMergeNode in="SourceGraphic"/></feMerge>
  </filter>
  <filter id="softGlow"><feGaussianBlur stdDeviation="6"/></filter>
  <filter id="bigGlow"> <feGaussianBlur stdDeviation="14"/></filter>

  <!-- Clip paths -->
  <clipPath id="scrClip">
    <rect x="272" y="150" width="258" height="164" rx="2"/>
  </clipPath>
  <clipPath id="mon2Clip">
    <rect x="538" y="288" width="138" height="90" rx="3"/>
  </clipPath>
</defs>

<!-- ══════════════ BACKGROUND WALL ══════════════ -->
<rect width="800" height="560" fill="url(#wallG)"/>

<!-- Wall grid -->
<g opacity=".035" stroke="#0bc5ea" stroke-width=".5" fill="none">
  <line x1="0"   y1="100" x2="800" y2="100"/>
  <line x1="0"   y1="200" x2="800" y2="200"/>
  <line x1="0"   y1="300" x2="800" y2="300"/>
  <line x1="0"   y1="400" x2="800" y2="400"/>
  <line x1="100" y1="0"   x2="100" y2="420"/>
  <line x1="200" y1="0"   x2="200" y2="420"/>
  <line x1="300" y1="0"   x2="300" y2="420"/>
  <line x1="400" y1="0"   x2="400" y2="420"/>
  <line x1="500" y1="0"   x2="500" y2="420"/>
  <line x1="600" y1="0"   x2="600" y2="420"/>
  <line x1="700" y1="0"   x2="700" y2="420"/>
</g>

<!-- Screen ambient glow on wall -->
<ellipse cx="400" cy="220" rx="195" ry="115" fill="url(#ambGlow)" class="scr-glow"/>

<!-- ══════════════ CEILING LED STRIP ══════════════ -->
<rect x="0" y="0"  width="800" height="5"  fill="url(#ledBar)" opacity=".95"/>
<rect x="0" y="0"  width="800" height="14" fill="url(#ledBar)" opacity=".12" filter="url(#softGlow)"/>

<!-- ══════════════ LEFT WALL DECORATIONS ══════════════ -->

<!-- Neon sign -->
<g class="neon" filter="url(#glow)">
  <rect x="58" y="36" width="162" height="48" rx="8" fill="none" stroke="#0bc5ea" stroke-width="1.4" opacity=".65"/>
  <text x="139" y="58"  text-anchor="middle" font-family="'Courier New',monospace" font-size="11" fill="#0bc5ea" font-weight="bold" opacity=".95">&lt;CODE IS ART/&gt;</text>
  <text x="139" y="74"  text-anchor="middle" font-family="monospace" font-size="8"  fill="#7c3aed" opacity=".8">IDEAS-TECH © 2026</text>
</g>
<rect x="58" y="36" width="162" height="48" rx="8" fill="#0bc5ea" opacity=".025" filter="url(#bigGlow)"/>

<!-- Poster 1 — Cyber City -->
<g>
  <rect x="80" y="108" width="92" height="122" rx="3" fill="#040410" stroke="#0bc5ea" stroke-width="1.5"/>
  <!-- sky gradient fill -->
  <rect x="80" y="108" width="92" height="122" rx="3" fill="url(#posterG)" opacity=".08"/>
  <!-- buildings -->
  <rect x="86"  y="192" width="8"  height="32" fill="#0bc5ea" opacity=".45"/>
  <rect x="97"  y="180" width="10" height="44" fill="#7c3aed" opacity=".5"/>
  <rect x="110" y="188" width="8"  height="36" fill="#0bc5ea" opacity=".4"/>
  <rect x="121" y="175" width="9"  height="49" fill="#f43f8a" opacity=".4"/>
  <rect x="133" y="184" width="8"  height="40" fill="#7c3aed" opacity=".48"/>
  <rect x="144" y="178" width="9"  height="46" fill="#0bc5ea" opacity=".42"/>
  <rect x="155" y="190" width="9"  height="34" fill="#f43f8a" opacity=".35"/>
  <!-- windows -->
  <rect x="90"  y="198" width="3" height="3" fill="#fff" opacity=".6"/>
  <rect x="100" y="184" width="3" height="3" fill="#fff" opacity=".65"/>
  <rect x="100" y="192" width="3" height="3" fill="#fff" opacity=".5"/>
  <rect x="124" y="181" width="3" height="3" fill="#fff" opacity=".6"/>
  <rect x="147" y="185" width="3" height="3" fill="#fff" opacity=".5"/>
  <!-- moon -->
  <circle cx="94"  cy="130" r="10" fill="#1a1a38"/>
  <circle cx="97"  cy="128" r="10" fill="#0d0d1e"/>
  <text x="126" y="148" text-anchor="middle" font-family="monospace" font-size="7"   fill="#0bc5ea" opacity=".8">CYBER CITY</text>
  <text x="126" y="160" text-anchor="middle" font-family="monospace" font-size="6"   fill="#7c3aed" opacity=".7">2077</text>
  <rect x="80" y="108" width="92" height="122" rx="3" fill="none" stroke-width=".8" class="rgb-b"/>
</g>

<!-- Poster 2 — Achievement Unlocked -->
<g>
  <rect x="184" y="116" width="72" height="102" rx="3" fill="#090420" stroke="#7c3aed" stroke-width="1.5"/>
  <polygon points="220,133 223,142 233,142 225,147 228,156 220,151 212,156 215,147 207,142 217,142" fill="url(#trophyG)" opacity=".85"/>
  <text x="220" y="170" text-anchor="middle" font-family="monospace" font-size="6.5" fill="#7c3aed" font-weight="bold">ACHIEVEMENT</text>
  <text x="220" y="181" text-anchor="middle" font-family="monospace" font-size="6.5" fill="#7c3aed">UNLOCKED</text>
  <text x="220" y="195" text-anchor="middle" font-family="monospace" font-size="6"   fill="#0bc5ea" opacity=".8">FULL STACK</text>
  <text x="220" y="207" text-anchor="middle" font-family="monospace" font-size="6"   fill="#0bc5ea" opacity=".8">LEGEND</text>
</g>

<!-- Bookshelf top board -->
<rect x="62" y="268" width="202" height="10" rx="2" fill="#28185a" stroke="#382870" stroke-width="1"/>
<!-- Books -->
<rect x="68"  y="231" width="18" height="37" rx="1" fill="#e74c3c"/>
<rect x="68"  y="231" width="3"  height="37" fill="#c0392b"/>
<text x="77"  y="254" text-anchor="middle" font-family="monospace" font-size="5" fill="#fff" transform="rotate(-90,77,254)">JS</text>
<rect x="88"  y="235" width="16" height="33" rx="1" fill="#3498db"/>
<rect x="88"  y="235" width="3"  height="33" fill="#2980b9"/>
<text x="96"  y="255" text-anchor="middle" font-family="monospace" font-size="5" fill="#fff" transform="rotate(-90,96,255)">React</text>
<g class="bk-float">
  <rect x="106" y="233" width="14" height="35" rx="1" fill="#2ecc71"/>
  <rect x="106" y="233" width="3"  height="35" fill="#27ae60"/>
  <text x="113" y="254" text-anchor="middle" font-family="monospace" font-size="5" fill="#fff" transform="rotate(-90,113,254)">Node</text>
</g>
<rect x="122" y="237" width="16" height="31" rx="1" fill="#9b59b6"/>
<rect x="122" y="237" width="3"  height="31" fill="#8e44ad"/>
<text x="130" y="256" text-anchor="middle" font-family="monospace" font-size="5" fill="#fff" transform="rotate(-90,130,256)">TS</text>
<rect x="140" y="240" width="14" height="28" rx="1" fill="#e67e22"/>
<rect x="140" y="240" width="3"  height="28" fill="#d35400"/>
<text x="147" y="258" text-anchor="middle" font-family="monospace" font-size="5" fill="#fff" transform="rotate(-90,147,258)">Next</text>
<rect x="156" y="238" width="16" height="30" rx="1" fill="#1abc9c"/>
<rect x="156" y="238" width="3"  height="30" fill="#16a085"/>
<text x="164" y="256" text-anchor="middle" font-family="monospace" font-size="4.5" fill="#fff" transform="rotate(-90,164,256)">Mongo</text>
<!-- bookend -->
<rect x="174" y="252" width="10" height="16" rx="1" fill="#28185a"/>
<ellipse cx="179" cy="250" rx="6" ry="6" fill="#f43f8a" opacity=".7"/>

<!-- Shelf 2 board -->
<rect x="62" y="340" width="202" height="10" rx="2" fill="#28185a" stroke="#382870" stroke-width="1"/>
<!-- Shelf 2 items -->
<!-- Gamepad -->
<rect x="68"  y="317" width="30" height="19" rx="5" fill="#180a2e" stroke="#0bc5ea" stroke-width="1"/>
<ellipse cx="75"  cy="326" rx="3" ry="3" fill="#0bc5ea" opacity=".65"/>
<rect x="72"  y="324" width="6" height="4" rx="1" fill="#0bc5ea" opacity=".5" transform="rotate(90,75,326)"/>
<ellipse cx="90"  cy="324" rx="2" ry="2" fill="#f43f8a"  opacity=".7"/>
<ellipse cx="90"  cy="330" rx="2" ry="2" fill="#7c3aed"  opacity=".7"/>
<ellipse cx="94"  cy="327" rx="2" ry="2" fill="#2ecc71" opacity=".7"/>
<ellipse cx="86"  cy="327" rx="2" ry="2" fill="#e67e22"  opacity=".7"/>
<!-- Trophy 1 small -->
<g class="t-glow" filter="url(#glow)">
  <rect x="104" y="326" width="12" height="14" rx="1" fill="url(#trophyG)"/>
  <rect x="107" y="323" width="6"  height="3"  rx="1" fill="#ffd700"/>
  <rect x="108" y="320" width="4"  height="3"  rx="1" fill="#f5c518"/>
  <rect x="103" y="340" width="14" height="3"  rx="1" fill="#a07010"/>
</g>
<!-- Trophy 2 tall -->
<g class="t-glow" filter="url(#glow)">
  <rect x="122" y="320" width="14" height="20" rx="1" fill="url(#trophyG)"/>
  <rect x="125" y="317" width="8"  height="3"  rx="1" fill="#ffd700"/>
  <rect x="126" y="314" width="6"  height="3"  rx="2" fill="#f5c518"/>
  <rect x="121" y="340" width="16" height="3"  rx="1" fill="#a07010"/>
  <circle cx="129" cy="327" r="3" fill="#fff" opacity=".25"/>
</g>
<!-- Medal star -->
<polygon points="152,330 154,337 161,337 155,341 157,348 152,344 147,348 149,341 143,337 150,337" fill="#ffd700" opacity=".85" filter="url(#glow)"/>
<!-- Plushie -->
<ellipse cx="178" cy="330" rx="14" ry="11" fill="#f43f8a" opacity=".8"/>
<ellipse cx="170" cy="322" rx="4.5" ry="4"   fill="#f43f8a"/>
<ellipse cx="186" cy="322" rx="4.5" ry="4"   fill="#f43f8a"/>
<circle  cx="174" cy="331" r="2.5" fill="#fff" opacity=".45"/>
<circle  cx="182" cy="331" r="2.5" fill="#fff" opacity=".45"/>
<path d="M 174 337 Q 178 340 182 337" stroke="#c0306a" stroke-width="1.2" fill="none"/>

<!-- Plant (right of shelf) -->
<g class="plant">
  <rect x="222" y="308" width="12" height="30" rx="6" fill="#18281a"/>
  <ellipse cx="228" cy="300" rx="14" ry="18" fill="#2a5428"/>
  <ellipse cx="217" cy="308" rx="8"  ry="12" fill="#366036"/>
  <ellipse cx="239" cy="306" rx="8"  ry="12" fill="#2a5830"/>
  <ellipse cx="228" cy="294" rx="6"  ry="8"  fill="#428248"/>
  <rect x="220" y="336" width="16" height="14" rx="3" fill="#6a4020"/>
  <rect x="218" y="335" width="20" height="4"  rx="2" fill="#7a5030"/>
</g>

<!-- ══════════════ RIGHT WALL DECORATIONS ══════════════ -->

<!-- Large circuit poster -->
<g>
  <rect x="588" y="58" width="132" height="182" rx="4" fill="#040410" stroke="#f43f8a" stroke-width="1.5"/>
  <rect x="588" y="58" width="132" height="182" rx="4" fill="url(#posterG)" opacity=".07"/>
  <g stroke="#0bc5ea" stroke-width=".9" fill="none" opacity=".5">
    <line x1="604" y1="78" x2="648" y2="78"/>
    <line x1="648" y1="78" x2="648" y2="98"/>
    <line x1="648" y1="98" x2="688" y2="98"/>
    <line x1="688" y1="98" x2="688" y2="128"/>
    <line x1="604" y1="78" x2="604" y2="138"/>
    <line x1="604" y1="138" x2="628" y2="138"/>
    <line x1="628" y1="138" x2="628" y2="158"/>
    <line x1="628" y1="158" x2="698" y2="158"/>
    <line x1="698" y1="158" x2="698" y2="180"/>
    <line x1="668" y1="118" x2="708" y2="118"/>
    <line x1="708" y1="118" x2="708" y2="144"/>
  </g>
  <circle cx="648" cy="78"  r="3" fill="#0bc5ea" opacity=".7"/>
  <circle cx="688" cy="98"  r="3" fill="#7c3aed" opacity=".7"/>
  <circle cx="604" cy="138" r="3" fill="#f43f8a" opacity=".7"/>
  <circle cx="698" cy="158" r="3" fill="#0bc5ea" opacity=".7"/>
  <circle cx="708" cy="118" r="3" fill="#f43f8a" opacity=".7"/>
  <text x="654" y="208" text-anchor="middle" font-family="'Courier New',monospace" font-size="12" fill="#f43f8a" font-weight="bold">IN THE ZONE</text>
  <text x="654" y="226" text-anchor="middle" font-family="monospace" font-size="8"  fill="#0bc5ea" opacity=".8">∞ LINES OF CODE</text>
</g>

<!-- Achievement board -->
<g>
  <rect x="598" y="264" width="142" height="92" rx="4" fill="#0c0820" stroke="#7c3aed" stroke-width="1.5"/>
  <text x="669" y="282" text-anchor="middle" font-family="monospace" font-size="8" fill="#7c3aed" font-weight="bold">🏆 ACHIEVEMENTS</text>
  <circle cx="616" cy="299" r="5" fill="#ffd700" opacity=".8"/>
  <text x="626" y="303" font-family="monospace" font-size="6.5" fill="#ccc">100 Commits Streak</text>
  <circle cx="616" cy="314" r="5" fill="#0bc5ea" opacity=".8"/>
  <text x="626" y="318" font-family="monospace" font-size="6.5" fill="#ccc">Full Stack Master</text>
  <circle cx="616" cy="329" r="5" fill="#f43f8a" opacity=".8"/>
  <text x="626" y="333" font-family="monospace" font-size="6.5" fill="#ccc">Night Owl Coder</text>
  <circle cx="616" cy="344" r="5" fill="#7c3aed" opacity=".8"/>
  <text x="626" y="348" font-family="monospace" font-size="6.5" fill="#ccc">AI Whisperer</text>
</g>

<!-- Clock -->
<g filter="url(#glow)">
  <circle cx="556" cy="78"  r="28" fill="#08061e" stroke="#0bc5ea" stroke-width="2"/>
  <circle cx="556" cy="78"  r="24" fill="none"    stroke="#0bc5ea" stroke-width=".5" opacity=".3"/>
  <text x="556" y="56"  text-anchor="middle" font-family="monospace" font-size="7" fill="#0bc5ea" opacity=".7">12</text>
  <text x="580" y="82"  text-anchor="middle" font-family="monospace" font-size="7" fill="#0bc5ea" opacity=".7">3</text>
  <text x="556" y="108" text-anchor="middle" font-family="monospace" font-size="7" fill="#0bc5ea" opacity=".7">6</text>
  <text x="532" y="82"  text-anchor="middle" font-family="monospace" font-size="7" fill="#0bc5ea" opacity=".7">9</text>
  <!-- hour hand -->
  <line x1="556" y1="78" x2="556" y2="62" stroke="#ffffff" stroke-width="2.2" stroke-linecap="round"/>
  <!-- minute hand -->
  <line x1="556" y1="78" x2="570" y2="72" stroke="#0bc5ea" stroke-width="1.5" stroke-linecap="round">
    <animateTransform attributeName="transform" type="rotate" from="0 556 78" to="360 556 78" dur="60s" repeatCount="indefinite"/>
  </line>
  <!-- second hand -->
  <line x1="556" y1="78" x2="556" y2="57" stroke="#f43f8a" stroke-width=".9" stroke-linecap="round">
    <animateTransform attributeName="transform" type="rotate" from="0 556 78" to="360 556 78" dur="5s" repeatCount="indefinite"/>
  </line>
  <circle cx="556" cy="78" r="2.5" fill="#f43f8a"/>
</g>

<!-- Small gamer poster right -->
<g>
  <rect x="742" y="78" width="46" height="57" rx="2" fill="#0c0420" stroke="#7c3aed" stroke-width="1"/>
  <rect x="748" y="100" width="34" height="22" rx="9" fill="#180a32"/>
  <rect x="750" y="107" width="5"  height="8"  rx="1" fill="#0bc5ea" opacity=".6"/>
  <rect x="748" y="110" width="8"  height="5"  rx="1" fill="#0bc5ea" opacity=".6"/>
  <circle cx="772" cy="110" r="3" fill="#f43f8a" opacity=".7"/>
  <circle cx="777" cy="115" r="3" fill="#7c3aed" opacity=".7"/>
  <circle cx="767" cy="115" r="3" fill="#2ecc71" opacity=".7"/>
  <circle cx="772" cy="120" r="3" fill="#e67e22" opacity=".7"/>
  <text x="765" y="148" text-anchor="middle" font-family="monospace" font-size="5.5" fill="#7c3aed">GAME ON</text>
</g>

<!-- ══════════════ FLOOR ══════════════ -->
<rect x="0" y="420" width="800" height="140" fill="url(#floorG)"/>
<g opacity=".055">
  <rect x="0"   y="420" width="80" height="80" fill="#0bc5ea"/>
  <rect x="160" y="420" width="80" height="80" fill="#0bc5ea"/>
  <rect x="320" y="420" width="80" height="80" fill="#0bc5ea"/>
  <rect x="480" y="420" width="80" height="80" fill="#0bc5ea"/>
  <rect x="640" y="420" width="80" height="80" fill="#0bc5ea"/>
  <rect x="80"  y="500" width="80" height="60" fill="#0bc5ea"/>
  <rect x="240" y="500" width="80" height="60" fill="#0bc5ea"/>
  <rect x="400" y="500" width="80" height="60" fill="#0bc5ea"/>
  <rect x="560" y="500" width="80" height="60" fill="#0bc5ea"/>
  <rect x="720" y="500" width="80" height="60" fill="#0bc5ea"/>
</g>
<rect x="0" y="420" width="800" height="3" fill="url(#ledBar)" opacity=".55"/>

<!-- ══════════════ DESK ══════════════ -->
<rect x="148" y="376" width="564" height="48" rx="5" fill="url(#deskG)" stroke="#38286a" stroke-width="1.5"/>
<rect x="154" y="420" width="552" height="8"  rx="2" fill="#140e30"/>
<rect x="172" y="425" width="22"  height="82" rx="4" fill="#140e30"/>
<rect x="604" y="425" width="22"  height="82" rx="4" fill="#140e30"/>
<rect x="178" y="422" width="442" height="3"  fill="url(#ledBar)" opacity=".75"/>

<!-- ══════════════ DESK ITEMS ══════════════ -->

<!-- SECONDARY MONITOR (music visualizer) -->
<g>
  <rect x="532" y="283" width="152" height="96"  rx="6" fill="#08061a" stroke="#2a2050" stroke-width="2"/>
  <rect x="540" y="290" width="136" height="82"  rx="3" fill="#050412"/>
  <!-- music vis bars -->
  <g opacity=".88">
    <rect x="550" y="354" width="5" height="20" rx="2" fill="#0bc5ea">
      <animate attributeName="height" values="20;34;12;26;8;20"  dur="1.2s" repeatCount="indefinite"/>
      <animate attributeName="y"      values="354;340;362;348;366;354" dur="1.2s" repeatCount="indefinite"/>
    </rect>
    <rect x="559" y="349" width="5" height="25" rx="2" fill="#7c3aed">
      <animate attributeName="height" values="25;10;36;15;28;25"  dur="1s"   repeatCount="indefinite"/>
      <animate attributeName="y"      values="349;364;338;359;346;349" dur="1s"   repeatCount="indefinite"/>
    </rect>
    <rect x="568" y="356" width="5" height="18" rx="2" fill="#f43f8a">
      <animate attributeName="height" values="18;30;10;24;38;18"  dur="1.4s" repeatCount="indefinite"/>
      <animate attributeName="y"      values="356;344;364;350;336;356" dur="1.4s" repeatCount="indefinite"/>
    </rect>
    <rect x="577" y="352" width="5" height="22" rx="2" fill="#0bc5ea">
      <animate attributeName="height" values="22;8;34;18;28;22"   dur="0.9s" repeatCount="indefinite"/>
      <animate attributeName="y"      values="352;366;340;356;346;352" dur="0.9s" repeatCount="indefinite"/>
    </rect>
    <rect x="586" y="350" width="5" height="24" rx="2" fill="#7c3aed">
      <animate attributeName="height" values="24;36;12;28;16;24"  dur="1.1s" repeatCount="indefinite"/>
      <animate attributeName="y"      values="350;338;362;346;358;350" dur="1.1s" repeatCount="indefinite"/>
    </rect>
    <rect x="595" y="354" width="5" height="20" rx="2" fill="#f43f8a">
      <animate attributeName="height" values="20;14;30;8;26;20"   dur="1.3s" repeatCount="indefinite"/>
      <animate attributeName="y"      values="354;360;344;366;348;354" dur="1.3s" repeatCount="indefinite"/>
    </rect>
    <rect x="604" y="348" width="5" height="26" rx="2" fill="#0bc5ea">
      <animate attributeName="height" values="26;38;16;32;10;26"  dur="0.8s" repeatCount="indefinite"/>
      <animate attributeName="y"      values="348;336;358;342;364;348" dur="0.8s" repeatCount="indefinite"/>
    </rect>
    <rect x="613" y="352" width="5" height="22" rx="2" fill="#7c3aed">
      <animate attributeName="height" values="22;12;34;20;30;22"  dur="1.5s" repeatCount="indefinite"/>
      <animate attributeName="y"      values="352;362;340;354;344;352" dur="1.5s" repeatCount="indefinite"/>
    </rect>
    <rect x="622" y="350" width="5" height="24" rx="2" fill="#f43f8a">
      <animate attributeName="height" values="24;34;14;28;18;24"  dur="1.2s" repeatCount="indefinite"/>
      <animate attributeName="y"      values="350;340;360;346;356;350" dur="1.2s" repeatCount="indefinite"/>
    </rect>
    <rect x="631" y="354" width="5" height="20" rx="2" fill="#0bc5ea">
      <animate attributeName="height" values="20;28;10;22;32;20"  dur="0.7s" repeatCount="indefinite"/>
      <animate attributeName="y"      values="354;346;364;352;342;354" dur="0.7s" repeatCount="indefinite"/>
    </rect>
    <rect x="640" y="350" width="5" height="24" rx="2" fill="#7c3aed">
      <animate attributeName="height" values="24;14;36;22;10;24"  dur="1.6s" repeatCount="indefinite"/>
      <animate attributeName="y"      values="350;360;338;352;364;350" dur="1.6s" repeatCount="indefinite"/>
    </rect>
    <rect x="649" y="352" width="5" height="22" rx="2" fill="#f43f8a">
      <animate attributeName="height" values="22;32;12;26;18;22"  dur="1.0s" repeatCount="indefinite"/>
      <animate attributeName="y"      values="352;342;362;348;356;352" dur="1.0s" repeatCount="indefinite"/>
    </rect>
    <rect x="658" y="355" width="5" height="19" rx="2" fill="#0bc5ea">
      <animate attributeName="height" values="19;30;9;24;36;19"   dur="1.35s" repeatCount="indefinite"/>
      <animate attributeName="y"      values="355;344;365;350;338;355" dur="1.35s" repeatCount="indefinite"/>
    </rect>
  </g>
  <text x="608" y="304" text-anchor="middle" font-family="monospace" font-size="7.5" fill="#7c3aed" opacity=".85">♪ lo-fi vibes ♪</text>
  <text x="608" y="316" text-anchor="middle" font-family="monospace" font-size="6.5" fill="#0bc5ea" opacity=".6">now playing...</text>
  <!-- stand -->
  <rect x="598" y="378" width="20" height="10" rx="2" fill="#140e30"/>
  <rect x="584" y="386" width="48" height="6"  rx="3" fill="#140e30"/>
</g>

<!-- COFFEE MUG -->
<g>
  <!-- steam trails -->
  <path d="M 194 336 Q 192 326 196 314 Q 200 302 198 290" stroke="#ffffffaa" stroke-width="2.2" fill="none" stroke-linecap="round" class="s1"/>
  <path d="M 205 336 Q 209 322 204 310 Q 199 298 204 286" stroke="#ffffffaa" stroke-width="1.7" fill="none" stroke-linecap="round" class="s2"/>
  <path d="M 215 334 Q 211 322 215 310"                    stroke="#ffffffaa" stroke-width="1.5" fill="none" stroke-linecap="round" class="s3"/>
  <!-- mug body -->
  <rect x="184" y="343" width="40" height="34" rx="4" fill="url(#mugG)" stroke="#0bc5ea" stroke-width="1.2"/>
  <!-- handle -->
  <path d="M 224 350 Q 240 350 240 360 Q 240 370 224 370" stroke="#0bc5ea" stroke-width="2.5" fill="none"/>
  <!-- coffee surface -->
  <ellipse cx="204" cy="344" rx="20" ry="4" fill="#2e1200" opacity=".85"/>
  <!-- text on mug -->
  <text x="204" y="365" text-anchor="middle" font-family="monospace" font-size="7.5" fill="#0bc5ea" font-weight="bold">IDEAS</text>
  <!-- coaster -->
  <ellipse cx="204" cy="378" rx="26" ry="4.5" fill="#26164a" opacity=".65"/>
</g>

<!-- KEYBOARD -->
<g>
  <rect x="286" y="380" width="224" height="38" rx="5" fill="#120e28" stroke="#201848" stroke-width="1.5"/>
  <!-- key grid -->
  <g fill="#1c1640" stroke="#242060" stroke-width=".5">
    <rect x="292" y="384" width="10" height="8" rx="1"/><rect x="304" y="384" width="10" height="8" rx="1"/>
    <rect x="316" y="384" width="10" height="8" rx="1"/><rect x="328" y="384" width="10" height="8" rx="1"/>
    <rect x="340" y="384" width="10" height="8" rx="1"/><rect x="352" y="384" width="10" height="8" rx="1"/>
    <rect x="364" y="384" width="10" height="8" rx="1"/><rect x="376" y="384" width="10" height="8" rx="1"/>
    <rect x="388" y="384" width="10" height="8" rx="1"/><rect x="400" y="384" width="10" height="8" rx="1"/>
    <rect x="412" y="384" width="10" height="8" rx="1"/><rect x="424" y="384" width="10" height="8" rx="1"/>
    <rect x="436" y="384" width="10" height="8" rx="1"/><rect x="448" y="384" width="10" height="8" rx="1"/>
    <rect x="292" y="395" width="16" height="8" rx="1"/><rect x="310" y="395" width="10" height="8" rx="1"/>
    <rect x="322" y="395" width="10" height="8" rx="1"/><rect x="334" y="395" width="10" height="8" rx="1"/>
    <rect x="346" y="395" width="10" height="8" rx="1"/><rect x="358" y="395" width="10" height="8" rx="1"/>
    <rect x="370" y="395" width="10" height="8" rx="1"/><rect x="382" y="395" width="10" height="8" rx="1"/>
    <rect x="394" y="395" width="10" height="8" rx="1"/><rect x="406" y="395" width="10" height="8" rx="1"/>
    <rect x="418" y="395" width="10" height="8" rx="1"/><rect x="430" y="395" width="10" height="8" rx="1"/>
    <rect x="442" y="395" width="18" height="8" rx="1"/>
    <!-- spacebar -->
    <rect x="328" y="406" width="140" height="8" rx="2" fill="#0bc5ea" fill-opacity=".12" stroke="#0bc5ea" stroke-width=".8"/>
  </g>
  <!-- keyboard RGB top edge -->
  <rect x="286" y="380" width="224" height="3" rx="2" fill="url(#ledBar)" opacity=".5"/>
</g>

<!-- MOUSE -->
<g>
  <rect x="522" y="383" width="28" height="38" rx="14" fill="#120e28" stroke="#201848" stroke-width="1.5"/>
  <line x1="536" y1="383" x2="536" y2="404" stroke="#0bc5ea" stroke-width=".8" opacity=".4"/>
  <rect x="531" y="388" width="10" height="6" rx="3" fill="#0bc5ea" opacity=".3"/>
</g>

<!-- DESK LAMP -->
<g>
  <line x1="168" y1="376" x2="188" y2="318" stroke="#28185a" stroke-width="4.5" stroke-linecap="round"/>
  <line x1="188" y1="318" x2="218" y2="298" stroke="#28185a" stroke-width="4.5" stroke-linecap="round"/>
  <ellipse cx="228" cy="294" rx="23" ry="11" fill="#28185a"/>
  <polygon points="207,294 249,294 255,315 201,315" fill="#180e38" opacity=".8"/>
  <ellipse cx="228" cy="380" rx="65" ry="14" fill="url(#lampG)" opacity=".8"/>
  <circle  cx="228" cy="296" r="6"  fill="#ffe090" opacity=".9" filter="url(#softGlow)"/>
</g>

<!-- ══════════════ MAIN MONITOR ══════════════ -->
<rect x="250" y="182" width="300" height="200" rx="10" fill="#080616" stroke="#201848" stroke-width="2.5"/>
<rect x="260" y="190" width="280" height="184" rx="6"  fill="#040310"/>
<rect x="260" y="190" width="280" height="184" rx="6"  fill="#0bc5ea" opacity=".035" filter="url(#bigGlow)" class="scr-glow"/>

<!-- Code editor screen content -->
<g clip-path="url(#scrClip)">
  <rect x="272" y="150" width="258" height="164" fill="#050c14"/>
  <!-- tab bar -->
  <rect x="272" y="150" width="258" height="16"  fill="#08141e"/>
  <rect x="274" y="152" width="56"  height="12"  rx="3" fill="#0c2030" stroke="#0bc5ea" stroke-width=".5"/>
  <text x="280" y="162" font-family="monospace" font-size="6.5" fill="#0bc5ea">index.ts</text>
  <rect x="332" y="152" width="50"  height="12"  rx="3" fill="#07121c"/>
  <text x="338" y="162" font-family="monospace" font-size="6.5" fill="#4a6880">app.tsx</text>
  <rect x="384" y="152" width="50"  height="12"  rx="3" fill="#07121c"/>
  <text x="390" y="162" font-family="monospace" font-size="6.5" fill="#4a6880">api.ts</text>
  <!-- line number gutter -->
  <rect x="272" y="166" width="20" height="148" fill="#060e18"/>
  <g font-family="monospace" font-size="6" fill="#284060" text-anchor="middle">
    <text x="281" y="178">1</text>  <text x="281" y="187">2</text>  <text x="281" y="196">3</text>
    <text x="281" y="205">4</text>  <text x="281" y="214">5</text>  <text x="281" y="223">6</text>
    <text x="281" y="232">7</text>  <text x="281" y="241">8</text>  <text x="281" y="250">9</text>
    <text x="281" y="259">10</text> <text x="281" y="268">11</text> <text x="281" y="277">12</text>
    <text x="281" y="286">13</text> <text x="281" y="295">14</text> <text x="281" y="304">15</text>
  </g>
  <!-- scrolling code -->
  <g class="code-lines" font-family="'Courier New',monospace" font-size="7">
    <text x="295" y="178"><tspan fill="#7c3aed">import</tspan><tspan fill="#c9d1d9"> { </tspan><tspan fill="#0bc5ea">useState</tspan><tspan fill="#c9d1d9">, </tspan><tspan fill="#0bc5ea">useEffect</tspan><tspan fill="#c9d1d9"> } </tspan><tspan fill="#7c3aed">from</tspan><tspan fill="#a5d6a7"> 'react'</tspan></text>
    <text x="295" y="187"><tspan fill="#7c3aed">import</tspan><tspan fill="#c9d1d9"> { </tspan><tspan fill="#0bc5ea">NextPage</tspan><tspan fill="#c9d1d9"> } </tspan><tspan fill="#7c3aed">from</tspan><tspan fill="#a5d6a7"> 'next'</tspan></text>
    <text x="295" y="196"><tspan fill="#486880">// ── API Layer ──</tspan></text>
    <text x="295" y="205"><tspan fill="#f43f8a">const</tspan><tspan fill="#c9d1d9"> </tspan><tspan fill="#0bc5ea">fetchData</tspan><tspan fill="#c9d1d9"> = </tspan><tspan fill="#7c3aed">async</tspan><tspan fill="#c9d1d9"> () </tspan><tspan fill="#7c3aed">=></tspan><tspan fill="#c9d1d9"> {'{'}</tspan></text>
    <text x="303" y="214"><tspan fill="#f43f8a">const</tspan><tspan fill="#c9d1d9"> res = </tspan><tspan fill="#7c3aed">await</tspan><tspan fill="#c9d1d9"> </tspan><tspan fill="#0bc5ea">fetch</tspan><tspan fill="#c9d1d9">(</tspan><tspan fill="#a5d6a7">'/api/data'</tspan><tspan fill="#c9d1d9">)</tspan></text>
    <text x="303" y="223"><tspan fill="#f43f8a">const</tspan><tspan fill="#c9d1d9"> data = </tspan><tspan fill="#7c3aed">await</tspan><tspan fill="#c9d1d9"> res.</tspan><tspan fill="#0bc5ea">json</tspan><tspan fill="#c9d1d9">()</tspan></text>
    <text x="303" y="232"><tspan fill="#7c3aed">return</tspan><tspan fill="#c9d1d9"> data</tspan></text>
    <text x="295" y="241"><tspan fill="#c9d1d9">{'}'}</tspan></text>
    <text x="295" y="250"><tspan fill="#486880">// ── Component ──</tspan></text>
    <text x="295" y="259"><tspan fill="#f43f8a">const</tspan><tspan fill="#c9d1d9"> </tspan><tspan fill="#0bc5ea">Dashboard</tspan><tspan fill="#c9d1d9">: </tspan><tspan fill="#0bc5ea">NextPage</tspan><tspan fill="#c9d1d9"> = () </tspan><tspan fill="#7c3aed">=></tspan><tspan fill="#c9d1d9"> {'{'}</tspan></text>
    <text x="303" y="268"><tspan fill="#f43f8a">const</tspan><tspan fill="#c9d1d9"> [data, setData] = </tspan><tspan fill="#0bc5ea">useState</tspan><tspan fill="#c9d1d9">([])</tspan></text>
    <text x="303" y="277"><tspan fill="#0bc5ea">useEffect</tspan><tspan fill="#c9d1d9">(() </tspan><tspan fill="#7c3aed">=></tspan><tspan fill="#c9d1d9"> {'{'}</tspan></text>
    <text x="311" y="286"><tspan fill="#0bc5ea">fetchData</tspan><tspan fill="#c9d1d9">().</tspan><tspan fill="#0bc5ea">then</tspan><tspan fill="#c9d1d9">(setData)</tspan></text>
    <text x="303" y="295"><tspan fill="#c9d1d9">{'}'}, [])</tspan></text>
    <text x="303" y="304"><tspan fill="#7c3aed">return</tspan><tspan fill="#c9d1d9"> (</tspan></text>
    <text x="311" y="313"><tspan fill="#f43f8a">&lt;div </tspan><tspan fill="#0bc5ea">className</tspan><tspan fill="#c9d1d9">=</tspan><tspan fill="#a5d6a7">"dashboard"</tspan><tspan fill="#f43f8a">&gt;</tspan></text>
    <text x="319" y="322"><tspan fill="#f43f8a">&lt;Header </tspan><tspan fill="#0bc5ea">data</tspan><tspan fill="#c9d1d9">={'{'}data{'}'}</tspan><tspan fill="#f43f8a">/&gt;</tspan></text>
    <text x="319" y="331"><tspan fill="#f43f8a">&lt;Analytics </tspan><tspan fill="#0bc5ea">live</tspan><tspan fill="#f43f8a">/&gt;</tspan></text>
    <text x="311" y="340"><tspan fill="#f43f8a">&lt;/div&gt;</tspan></text>
    <text x="295" y="349"><tspan fill="#c9d1d9">  )</tspan><tspan fill="#f43f8a" class="cursor">█</tspan></text>
  </g>
</g>
<!-- monitor stand -->
<rect x="383" y="380" width="34" height="16" rx="3" fill="#080616"/>
<rect x="353" y="394" width="94" height="8"  rx="4" fill="#080616"/>
<!-- monitor RGB rim glow -->
<rect x="250" y="182" width="300" height="200" rx="10" fill="none" stroke-width="2" class="rgb-b"/>

<!-- ══════════════ CHARACTER ══════════════ -->
<!--
  Entire character wrapped in body-bob.
  Only TWO arm groups exist:
    1. .arm-l  — left arm, types the whole time
    2. .arm-r  — right arm, types most of the time,
                 then smoothly lifts a mug to the mouth,
                 holds it there, then lowers back down.
  NO victory arm groups. NO extra arm groups.
-->
<g class="body-bob">

  <!-- GAMING CHAIR -->
  <ellipse cx="400" cy="530" rx="62" ry="10" fill="#0a0818" opacity=".55"/>
  <line x1="368" y1="516" x2="336" y2="532" stroke="#18103a" stroke-width="4.5"/>
  <line x1="400" y1="520" x2="400" y2="536" stroke="#18103a" stroke-width="4.5"/>
  <line x1="432" y1="516" x2="464" y2="532" stroke="#18103a" stroke-width="4.5"/>
  <circle cx="336" cy="532" r="6.5" fill="#18103a"/><circle cx="336" cy="532" r="3" fill="#0bc5ea" opacity=".3"/>
  <circle cx="400" cy="536" r="6.5" fill="#18103a"/><circle cx="400" cy="536" r="3" fill="#0bc5ea" opacity=".3"/>
  <circle cx="464" cy="532" r="6.5" fill="#18103a"/><circle cx="464" cy="532" r="3" fill="#0bc5ea" opacity=".3"/>
  <rect x="390" y="462" width="20" height="60" rx="4" fill="#18103a"/>
  <!-- seat -->
  <rect x="328" y="434" width="144" height="32" rx="8" fill="url(#chairG)" stroke="#0bc5ea" stroke-width="1.2"/>
  <rect x="328" y="462" width="144" height="3"  rx="1" fill="url(#ledBar)" opacity=".85"/>
  <!-- backrest -->
  <rect x="340" y="298" width="120" height="140" rx="12" fill="url(#chairG)" stroke="#0bc5ea" stroke-width="1.2"/>
  <rect x="340" y="298" width="120" height="5"   rx="3" fill="url(#ledBar)" opacity=".85"/>
  <line x1="400" y1="303" x2="400" y2="434" stroke="#0bc5ea" stroke-width="1" opacity=".18"/>
  <!-- armrests -->
  <rect x="320" y="390" width="24" height="13" rx="4" fill="#18103a" stroke="#201848" stroke-width="1"/>
  <rect x="456" y="390" width="24" height="13" rx="4" fill="#18103a" stroke="#201848" stroke-width="1"/>
  <!-- headrest -->
  <rect x="360" y="278" width="80" height="32" rx="10" fill="url(#chairG)" stroke="#0bc5ea" stroke-width="1.2"/>
  <rect x="346" y="280" width="24" height="24" rx="6" fill="#18103a" stroke="#0bc5ea" stroke-width="1"/>
  <rect x="430" y="280" width="24" height="24" rx="6" fill="#18103a" stroke="#0bc5ea" stroke-width="1"/>

  <!-- BODY -->
  <rect x="356" y="308" width="88" height="124" rx="12" fill="url(#shirtG)"/>
  <!-- hoodie pocket -->
  <rect x="373" y="390" width="54" height="32" rx="6" fill="#100222"/>
  <ellipse cx="400" cy="422" rx="9" ry="4.5" fill="#180330" opacity=".9"/>
  <!-- shoulder seams -->
  <path d="M 356 318 Q 338 307 322 318" stroke="#100222" stroke-width="2.5" fill="none"/>
  <path d="M 444 318 Q 462 307 478 318" stroke="#100222" stroke-width="2.5" fill="none"/>
  <!-- hoodie neckline -->
  <path d="M 376 310 Q 400 302 424 310" stroke="#100222" stroke-width="3" fill="none"/>

  <!-- ── LEFT ARM — always typing ── -->
  <g class="arm-l">
    <!-- upper arm -->
    <path d="M 360 318 Q 334 328 320 354 Q 308 374 318 386"
          stroke="#100222" stroke-width="24" stroke-linecap="round" fill="none"/>
    <path d="M 360 318 Q 334 328 320 354 Q 308 374 318 386"
          stroke="#150330" stroke-width="20" stroke-linecap="round" fill="none"/>
    <!-- sleeve cuff -->
    <ellipse cx="318" cy="386" rx="12" ry="7" fill="#080616" stroke="#0bc5ea" stroke-width="1"/>
    <!-- hand -->
    <ellipse cx="314" cy="395" rx="11" ry="8.5" fill="#c09068"/>
    <!-- fingers on keyboard -->
    <rect x="306" y="400" width="5"  height="7" rx="2" fill="#c09068"/>
    <rect x="312" y="401" width="5"  height="8" rx="2" fill="#c09068"/>
    <rect x="318" y="401" width="5"  height="8" rx="2" fill="#c09068"/>
    <rect x="324" y="400" width="4.5" height="7" rx="2" fill="#c09068"/>
  </g>

  <!-- ── RIGHT ARM — types, then lifts mug, then types again ── -->
  <g class="arm-r">
    <!-- upper arm -->
    <path d="M 440 318 Q 466 328 480 354 Q 492 374 482 386"
          stroke="#100222" stroke-width="24" stroke-linecap="round" fill="none"/>
    <path d="M 440 318 Q 466 328 480 354 Q 492 374 482 386"
          stroke="#150330" stroke-width="20" stroke-linecap="round" fill="none"/>
    <!-- sleeve cuff -->
    <ellipse cx="482" cy="386" rx="12" ry="7" fill="#080616" stroke="#0bc5ea" stroke-width="1"/>
    <!-- hand -->
    <ellipse cx="486" cy="395" rx="11" ry="8.5" fill="#c09068"/>
    <!-- fingers (or holding mug) -->
    <rect x="478" y="400" width="4.5" height="7" rx="2" fill="#c09068"/>
    <rect x="484" y="401" width="5"   height="8" rx="2" fill="#c09068"/>
    <rect x="490" y="401" width="5"   height="8" rx="2" fill="#c09068"/>
    <rect x="496" y="400" width="5"   height="7" rx="2" fill="#c09068"/>
    <!-- Mini mug in right hand (travels with arm) -->
    <rect x="492" y="390" width="18" height="15" rx="3" fill="#182840" stroke="#0bc5ea" stroke-width=".9"/>
    <path d="M 510 393 Q 516 393 516 400 Q 516 408 510 408" stroke="#0bc5ea" stroke-width="1.5" fill="none"/>
    <ellipse cx="501" cy="391" rx="9" ry="2.5" fill="#2e1200" opacity=".8"/>
  </g>

  <!-- HEAD — back view, with head-nod -->
  <g class="head-anim">
    <!-- neck -->
    <rect x="388" y="296" width="24" height="22" rx="4" fill="#c09068"/>
    <!-- skull -->
    <ellipse cx="400" cy="265" rx="44" ry="42" fill="#c09068"/>
    <!-- hair — dark natural fade -->
    <ellipse cx="400" cy="249" rx="44" ry="26" fill="#1a1006"/>
    <ellipse cx="400" cy="245" rx="40" ry="21" fill="#231506"/>
    <!-- hair texture -->
    <path d="M 360 258 Q 378 248 400 246 Q 422 248 440 258" stroke="#0f0804" stroke-width="3.5" fill="none" opacity=".6"/>
    <path d="M 363 266 Q 380 257 400 255 Q 420 257 437 266" stroke="#0f0804" stroke-width="2.5" fill="none" opacity=".4"/>
    <!-- headphones band -->
    <path d="M 358 263 Q 350 248 358 236 Q 368 224 400 222 Q 432 224 442 236 Q 450 248 442 263"
          stroke="#181028" stroke-width="9" fill="none" stroke-linecap="round"/>
    <path d="M 358 263 Q 350 248 358 236 Q 368 224 400 222 Q 432 224 442 236 Q 450 248 442 263"
          stroke="#0bc5ea" stroke-width="2.5" fill="none" stroke-linecap="round" opacity=".5"/>
    <!-- ear cups -->
    <rect x="346" y="254" width="20" height="26" rx="9" fill="#181028" stroke="#0bc5ea" stroke-width="1.5"/>
    <rect x="434" y="254" width="20" height="26" rx="9" fill="#181028" stroke="#0bc5ea" stroke-width="1.5"/>
    <!-- LED on cups -->
    <circle cx="356" cy="267" r="5" fill="#0bc5ea" opacity=".7" filter="url(#glow)"/>
    <circle cx="444" cy="267" r="5" fill="#0bc5ea" opacity=".7" filter="url(#glow)"/>
    <circle cx="356" cy="267" r="5" fill="none" stroke="#0bc5ea" stroke-width="1.5" class="rgb-b"/>
    <circle cx="444" cy="267" r="5" fill="none" stroke="#0bc5ea" stroke-width="1.5" class="rgb-b"/>
  </g>

</g>
<!-- END character body-bob -->

<!-- Screen glow cast onto character back -->
<ellipse cx="400" cy="360" rx="106" ry="62" fill="url(#scrLight)" opacity=".65"/>

<!-- ══════════════ CAT ON DESK CORNER ══════════════ -->
<g>
  <ellipse cx="718" cy="418" rx="23" ry="19" fill="#18183a"/>
  <ellipse cx="718" cy="396" rx="17" ry="15" fill="#18183a"/>
  <polygon points="706,389 710,377 717,389" fill="#18183a"/>
  <polygon points="720,389 727,377 731,389" fill="#18183a"/>
  <polygon points="707,388 710,380 715,388" fill="#f43f8a" opacity=".5"/>
  <polygon points="721,388 727,380 730,388" fill="#f43f8a" opacity=".5"/>
  <!-- eyes (blink class on the group, transform-origin on the eye centers) -->
  <g class="cat-eye">
    <ellipse cx="712" cy="395" rx="3.5" ry="4.2" fill="#0bc5ea"/>
    <ellipse cx="724" cy="395" rx="3.5" ry="4.2" fill="#0bc5ea"/>
  </g>
  <circle cx="712" cy="395" r="2.2" fill="#04040e"/>
  <circle cx="724" cy="395" r="2.2" fill="#04040e"/>
  <polygon points="718,400 716,404 720,404" fill="#f43f8a" opacity=".8"/>
  <path d="M 716 404 Q 718 407 720 404" stroke="#f43f8a" stroke-width="1.2" fill="none"/>
  <!-- tail -->
  <g class="cat-tail">
    <path d="M 737 424 Q 752 414 756 398 Q 760 382 750 378"
          stroke="#18183a" stroke-width="7" fill="none" stroke-linecap="round"/>
    <path d="M 737 424 Q 752 414 756 398 Q 760 382 750 378"
          stroke="#242452" stroke-width="4" fill="none" stroke-linecap="round"/>
  </g>
</g>

<!-- ══════════════ FLOATING NOTIFICATIONS ══════════════ -->
<!-- Build passed -->
<g class="notif1">
  <rect x="440" y="138" width="134" height="30" rx="8" fill="#0c2030" stroke="#0bc5ea" stroke-width="1" opacity=".96"/>
  <circle cx="457" cy="153" r="6" fill="#0bc5ea" opacity=".85"/>
  <text x="466" y="149" font-family="monospace" font-size="7.5" fill="#0bc5ea">✔ Build passed!</text>
  <text x="466" y="162" font-family="monospace" font-size="6.5" fill="#8aa0b8">3 commits · ideas-tech</text>
</g>
<!-- New star -->
<g class="notif2">
  <rect x="222" y="144" width="122" height="28" rx="8" fill="#0c0c28" stroke="#f43f8a" stroke-width="1" opacity=".96"/>
  <text x="237" y="157" font-family="monospace" font-size="7.5" fill="#f43f8a">⭐ New star!</text>
  <text x="237" y="168" font-family="monospace" font-size="6.5" fill="#8aa0b8">someone starred you</text>
</g>

<!-- ══════════════ BOTTOM LED BAR ══════════════ -->
<rect x="0" y="554" width="800" height="6" fill="url(#ledBar)" opacity=".75"/>

</svg>
